<svg id="Layer_1" data-name="Layer 1" xmlns="http://www.w3.org/2000/svg" viewBox="0 0 211.24 196.71"><defs><style>.cls-1{fill:#007949;}</style></defs><title>chain-icon</title><path class="cls-1" d="M261.58,228.55a5.89,5.89,0,0,0,0,8.36,24.59,24.59,0,0,1,0,34.74L211.26,322a24.59,24.59,0,0,1-34.74,0L169,314.39a24.59,24.59,0,0,1,0-34.74l50.32-50.32a5.91,5.91,0,0,0-8.36-8.36L160.6,271.3a36.34,36.34,0,0,0,0,51.45l7.57,7.57a36.44,36.44,0,0,0,51.45,0L269.94,280a36.44,36.44,0,0,0,0-51.45A5.89,5.89,0,0,0,261.58,228.55Z" transform="translate(-149.92 -144.24)"/><path class="cls-1" d="M350.53,162.44,343,154.87a36.44,36.44,0,0,0-51.45,0l-50.32,50.32a36.44,36.44,0,0,0,0,51.45,5.91,5.91,0,0,0,8.36-8.36,24.59,24.59,0,0,1,0-34.74l50.32-50.32a24.59,24.59,0,0,1,34.74,0l7.57,7.57a24.59,24.59,0,0,1,0,34.74l-50.32,50.32A5.93,5.93,0,0,0,296,266a5.76,5.76,0,0,0,4.16-1.75l50.32-50.32a36.39,36.39,0,0,0,0-51.45Z" transform="translate(-149.92 -144.24)"/></svg>