<svg id="Lager_1" data-name="Lager 1" xmlns="http://www.w3.org/2000/svg" viewBox="0 0 343.95 338.01"><defs><style>.cls-1{fill:#757575;}</style></defs><title>linkedin</title><path class="cls-1" d="M343.18,111.05c22.53,0,41.51,19,41.51,41.51,0,23.72-20.16,42.1-41.51,41.51-21.94.59-41.51-17.79-41.51-41.51-.59-23.13,18.38-41.51,41.51-41.51" transform="translate(-301.65 -111.05)"/><path class="cls-1" d="M366.3,449.06H318.86A11.89,11.89,0,0,1,307,437.2V229.65c0-6.52,4.74-11.86,11.27-11.86h48a11.89,11.89,0,0,1,11.86,11.86V437.8c0,5.93-5.34,11.27-11.86,11.27" transform="translate(-301.65 -111.05)"/><path class="cls-1" d="M645,290.14c0-43.88-32.62-78.28-76.5-78.28H556.06c-23.72,0-46.85,11.27-59.3,29.65l-5.93,5.93V223.72c0-2.37-3.56-5.93-5.93-5.93H425.6c-2.37,0-5.93,2.37-5.93,5.34V444.32c0,2.37,3.56,4.74,5.93,4.74h65.23c2.37,0,5.93-2.37,5.93-4.74V316.23c0-21.94,16.6-40.32,38.54-40.92a40.3,40.3,0,0,1,29.06,11.86c7.12,7.12,10.08,17.2,10.08,28.46V443.13c0,2.37,3.56,5.93,5.93,5.93h59.3c2.37,0,5.93-3.56,5.93-5.93v-153Z" transform="translate(-301.65 -111.05)"/></svg>