<svg id="Lager_1" data-name="Lager 1" xmlns="http://www.w3.org/2000/svg" viewBox="0 0 459.13 367.27"><defs><style>.cls-1{fill:#003e24;}</style></defs><title>favicon</title><path class="cls-1" d="M436.35,220c-1.36-10.56-8.75-64.79-8.9-66.71-1.32-5.22-2.61-10.18-3.87-14.92C411.81,71.87,363.27,18.16,294.88,13.31c-21.22-1.51-79.29,2.09-86.37,50.45a.79.79,0,0,0,1.34.67c4.41-4.6,18.38-18.07,51.13-19.8,22.06-1.16,81.12,1.31,104.43,89.79,3.55,11.81-38.33.76-44.13-.54-13.37-3-39.81-16.43-43.8-9.93s14.75,17.11,17.61,29.17c0,.08-.09.12-.09.2,0,4.06-21.07,3.9-27.9,4.39C213.6,161.59,165.69,229,165.69,229s-51.59,54.51-83.17,61.66c-41.1,14.89-72.19-.08-72.52,7.15-.43,9.48,32.66,54.51,82.09,53.37,36-.83,89-11.8,105.13-15.47,13.37-3,36-5.12,49.93-1.05,9.1,2.66,14.75,6.21,23.13,13.14,23.07,19.08,24.81,65.13,38.9-5.26,4-24.41,11.14-64.16,20-67.81,25.34-10.47,70.88,36.8,83.87,38.6a80.48,80.48,0,0,1,23.89,7c15.92,7,28.3-7.56,32.06-16.29C471.61,298,437.71,230.61,436.35,220Z" transform="translate(-10 -13.05)"/></svg>