<svg id="Layer_1" data-name="Layer 1" xmlns="http://www.w3.org/2000/svg" viewBox="0 0 212.05 141.37"><defs><style>.cls-1,.cls-2,.cls-3{fill:#007949;}.cls-2{font-size:45px;font-family:Karla-Regular, Karla;}.cls-3{font-size:20px;font-family:Karla-Bold, Karla;font-weight:700;}</style></defs><title>cloud-icon</title><path class="cls-1" d="M330.08,239.42c-1.87-31.81-28.09-57.23-59.7-57.23A62.3,62.3,0,0,0,221.1,207c-.27-.14-.54-.23-.81-.36-.7-.34-1.41-.66-2.13-1-.4-.16-.81-.3-1.21-.45-.72-.25-1.45-.47-2.19-.68-.41-.11-.81-.22-1.22-.31-.8-.18-1.61-.32-2.43-.44-.36-.05-.71-.12-1.07-.16a31.71,31.71,0,0,0-35.37,31.6c0,.45,0,.89.06,1.33h0c-14.7,8-24.8,24.8-24.8,41.61a45.45,45.45,0,0,0,45.4,45.4h86.61c.37,0,.73,0,1.1,0l.22,0,.47,0c.36,0,.72,0,1.09,0h34.65A42.56,42.56,0,0,0,362,281C362,261.65,348.45,244.25,330.08,239.42Zm-10.62,77.07H284.82c-.21,0-.41,0-.61,0l-1,0-.7,0c-.2,0-.41,0-.61,0H195.32A38.37,38.37,0,0,1,157,278.16c0-14.68,9.56-29.92,22.74-36.24l2-1v-2.23c0-.45,0-.9.05-1.36l0-.57,0-.74c0-.29,0-.57,0-.86a24.57,24.57,0,0,1,28-24.5l.82.13a24.09,24.09,0,0,1,2.79.63l.37.1a24.08,24.08,0,0,1,3,1.13l.74.36a24.69,24.69,0,0,1,13.82,22.16,3.53,3.53,0,0,0,7.07,0A31.73,31.73,0,0,0,227,210.92c10.13-13.25,26.82-21.66,43.42-21.66,27.37,0,50.1,21.68,52.47,49.08a67.5,67.5,0,0,0-14.43.44,3.53,3.53,0,0,0,.53,7,3.39,3.39,0,0,0,.53,0,64.92,64.92,0,0,1,16.55,0C342.5,248.89,354.9,264,354.9,281A35.48,35.48,0,0,1,319.46,316.49Z" transform="translate(-149.92 -182.19)"/><text class="cls-2" transform="translate(75.75 100.45)">CO</text><text class="cls-3" transform="translate(132.03 105.42)">2</text></svg>