<svg id="Lager_1" data-name="Lager 1" xmlns="http://www.w3.org/2000/svg" viewBox="0 0 345.9 345.9"><defs><style>.cls-1{fill:#fff;}</style></defs><title>instagram-white</title><path class="cls-1" d="M305.1,0H42C19.3,0,0,21.3,0,43.9V307.2c0,22.6,19.3,38.7,42,38.7H305.1c22.7,0,40.8-16.1,40.8-38.7V43.9C345.9,21.3,327.8,0,305.1,0ZM297,49.4a11.86,11.86,0,0,1,11.9,11.9v38A11.86,11.86,0,0,1,297,111.2H259a11.86,11.86,0,0,1-11.9-11.9v-38A11.86,11.86,0,0,1,259,49.4ZM174,109.7a66.2,66.2,0,1,1-66.4,66.2A66.32,66.32,0,0,1,174,109.7ZM308.9,298.3c0,5.3-5.6,10.5-11,10.5H50.1c-5.3,0-13-5.2-13-10.5V148.2H72.7c-2.4,12.4-3.7,18.1-3.7,27.7,0,57.8,47.1,104.7,105,104.7s105-47,105-104.8c0-9.6-1.3-15.3-3.7-27.7h33.6Z" transform="translate(0 0)"/></svg>