<svg id="Lager_1" data-name="Lager 1" xmlns="http://www.w3.org/2000/svg" viewBox="0 0 343.94 338.02"><defs><style>.cls-1{fill:#fff;}</style></defs><title>linkedin-white</title><path class="cls-1" d="M41.53,0C64.06,0,83,19,83,41.51,83,65.23,62.88,83.61,41.53,83,19.59,83.61,0,65.23,0,41.51-.57,18.38,18.4,0,41.53,0" transform="translate(-0.01 0)"/><path class="cls-1" d="M64.65,338H17.21A11.89,11.89,0,0,1,5.35,326.15V118.6c0-6.52,4.74-11.86,11.27-11.86h48A11.89,11.89,0,0,1,76.48,118.6V326.75c0,5.93-5.34,11.27-11.86,11.27" transform="translate(-0.01 0)"/><path class="cls-1" d="M343.35,179.09c0-43.88-32.62-78.28-76.5-78.28H254.41c-23.72,0-46.85,11.27-59.3,29.65l-5.93,5.93V112.67c0-2.37-3.56-5.93-5.93-5.93H124c-2.37,0-5.93,2.37-5.93,5.34V333.27c0,2.37,3.56,4.74,5.93,4.74h65.23c2.37,0,5.93-2.37,5.93-4.74V205.18c0-21.94,16.6-40.32,38.54-40.92a40.3,40.3,0,0,1,29.06,11.86c7.12,7.12,10.08,17.2,10.08,28.46v127.5c0,2.37,3.56,5.93,5.93,5.93H338c2.37,0,5.93-3.56,5.93-5.93v-153Z" transform="translate(-0.01 0)"/></svg>