<svg id="Lager_1" data-name="Lager 1" xmlns="http://www.w3.org/2000/svg" viewBox="0 0 401.43 326.26"><defs><style>.cls-1{fill:#fff;}</style></defs><title>twitter-white</title><g id="_Grupp_" data-name=" Grupp "><g id="_Grupp_2" data-name=" Grupp 2"><path id="_Bana_" data-name=" Bana " class="cls-1" d="M126.26,326.27c151.5,0,234.34-125.51,234.34-234.34,0-3.57-.07-7.12-.24-10.65a167.64,167.64,0,0,0,41.1-42.69,164.45,164.45,0,0,1-47.3,13A82.65,82.65,0,0,0,390.37,6a165.06,165.06,0,0,1-52.3,20,82.43,82.43,0,0,0-140.34,75.11A233.83,233.83,0,0,1,28,15.09a82.43,82.43,0,0,0,25.5,110,81.74,81.74,0,0,1-37.3-10.3v1.05a82.4,82.4,0,0,0,66.08,80.75A82.22,82.22,0,0,1,45,198a82.46,82.46,0,0,0,77,57.21,165.29,165.29,0,0,1-102.3,35.26A168.11,168.11,0,0,1,0,289.33a233.17,233.17,0,0,0,126.25,37" transform="translate(-0.03 -0.07)"/></g></g></svg>