<?xml version="1.0" encoding="utf-8"?>
<!-- Generator: Adobe Illustrator 20.1.0, SVG Export Plug-In . SVG Version: 6.00 Build 0)  -->
<svg version="1.1" id="Lager_1" xmlns="http://www.w3.org/2000/svg" xmlns:xlink="http://www.w3.org/1999/xlink" x="0px" y="0px"
	 viewBox="0 0 345.9 345.9" style="enable-background:new 0 0 345.9 345.9;" xml:space="preserve">
<style type="text/css">
	.st0{fill:#FFFFFF;}
	.st1{fill:#757575;}
</style>
<title>facebook</title>
<path class="st0" d="M238.7,345.9v-134h45l6.7-52.2h-51.7v-33.3c0-15.1,4.2-25.4,25.9-25.4h27.6V54.3c-13.4-1.4-26.8-2.1-40.3-2.1
	c-39.9,0-67.1,24.3-67.1,69v38.5h-45.1v52.2h45.1v134H238.7z"/>
<path class="st1" d="M305.1,0H42C19.3,0,0,21.3,0,43.9v263.3c0,22.6,19.3,38.7,42,38.7h263.1c22.7,0,40.8-16.1,40.8-38.7V43.9
	C345.9,21.3,327.8,0,305.1,0z M297,49.4c6.6,0,11.9,5.3,11.9,11.9v38c0,6.6-5.3,11.9-11.9,11.9h-38c-6.6,0-11.9-5.3-11.9-11.9v-38
	c0-6.6,5.3-11.9,11.9-11.9H297z M174,109.7c36.7,0,66.4,29.7,66.4,66.2c0,36.6-29.7,66.2-66.4,66.2c-36.7,0-66.4-29.7-66.4-66.2
	C107.6,139.4,137.3,109.7,174,109.7z M308.9,298.3c0,5.3-5.6,10.5-11,10.5H50.1c-5.3,0-13-5.2-13-10.5V148.2h35.6
	c-2.4,12.4-3.7,18.1-3.7,27.7c0,57.8,47.1,104.7,105,104.7c57.9,0,105-47,105-104.8c0-9.6-1.3-15.3-3.7-27.7h33.6V298.3z"/>
</svg>
