<?xml version="1.0" encoding="utf-8"?>
<!-- Generator: Adobe Illustrator 15.1.0, SVG Export Plug-In . SVG Version: 6.00 Build 0)  -->
<!DOCTYPE svg PUBLIC "-//W3C//DTD SVG 1.1//EN" "http://www.w3.org/Graphics/SVG/1.1/DTD/svg11.dtd">
<svg version="1.1" id="Lager_1" xmlns="http://www.w3.org/2000/svg" xmlns:xlink="http://www.w3.org/1999/xlink" x="0px" y="0px"
	 width="594px" height="137.552px" viewBox="0 0 594 137.552" enable-background="new 0 0 594 137.552" xml:space="preserve">
<polygon fill="#E53527" points="0,0 28.675,0 68.121,60.407 68.413,60.407 68.413,0 95.05,0 95.05,107.712 68.121,107.712 
	26.928,47.453 26.637,47.453 26.637,107.712 0,107.712 "/>
<g>
	<defs>
		<rect id="SVGID_1_" width="594" height="137.552"/>
	</defs>
	<clipPath id="SVGID_2_">
		<use xlink:href="#SVGID_1_"  overflow="visible"/>
	</clipPath>
	<path clip-path="url(#SVGID_2_)" fill="#E53527" d="M98.688,134.35l5.968-22.125c2.183,0.583,8.588,2.328,16.448,2.328
		c3.639,0,6.113-1.019,7.423-4.51l0.728-1.894L99.561,32.12h29.548l14.41,42.115h0.292l14.411-42.115h27.801l-32.605,83.454
		c-5.095,13.392-12.809,21.979-28.82,21.979C110.769,137.552,103.2,135.662,98.688,134.35"/>
</g>
<polygon fill="#004171" points="191.552,24.163 160.548,24.163 168.081,0 251.667,0 251.667,24.163 220.665,24.163 220.665,107.712 
	191.552,107.712 "/>
<g>
	<defs>
		<rect id="SVGID_3_" width="594" height="137.552"/>
	</defs>
	<clipPath id="SVGID_4_">
		<use xlink:href="#SVGID_3_"  overflow="visible"/>
	</clipPath>
	<path clip-path="url(#SVGID_4_)" fill="#004171" d="M281.78,60.552c-1.165-9.315-5.385-12.227-12.227-12.227
		c-5.676,0-10.189,3.348-11.937,12.227H281.78z M228.651,68.85c0-31.295,25.182-40.61,41.047-40.61
		c15.43,0,37.555,5.53,37.555,44.395v4.367h-49.927c1.457,10.188,7.133,12.662,15.575,12.662c8.151,0,17.321-4.075,22.416-7.132
		L305.651,100c-9.897,6.404-21.979,9.315-34.934,9.315C249.32,109.315,228.651,100.435,228.651,68.85"/>
</g>
<polygon fill="#004171" points="312.784,0 341.604,0 341.604,54.002 360.673,29.695 391.238,29.695 365.913,59.388 392.111,107.712 
	362.565,107.712 348.153,80.348 341.604,88.062 341.604,107.712 312.784,107.712 "/>
<g>
	<defs>
		<rect id="SVGID_5_" width="594" height="137.552"/>
	</defs>
	<clipPath id="SVGID_6_">
		<use xlink:href="#SVGID_5_"  overflow="visible"/>
	</clipPath>
	<path clip-path="url(#SVGID_6_)" fill="#004171" d="M395.605,29.694h28.82v12.082c3.348-5.386,11.498-13.537,25.908-13.537
		c12.228,0,22.416,5.822,22.416,22.561v56.913h-28.819V60.261c0-5.386-1.747-8.441-6.551-8.441c-4.949,0-9.17,2.474-12.954,5.53
		v50.362h-28.82V29.694z"/>
</g>
<path fill="#004171" d="M479.592,29.695h28.82v78.018h-28.82V29.695z M479.592,0h28.82v22.126h-28.82V0z"/>
<polygon fill="#004171" points="514.672,0 543.492,0 543.492,54.002 562.561,29.695 593.127,29.695 567.8,59.388 594,107.712 
	564.452,107.712 550.042,80.348 543.492,88.062 543.492,107.712 514.672,107.712 "/>
</svg>
