<svg id="Lager_1" data-name="Lager 1" xmlns="http://www.w3.org/2000/svg" viewBox="0 0 401.45 326.26"><defs><style>.cls-1{fill:#757575;}</style></defs><title>twitter</title><g id="_Grupp_" data-name="&lt;Grupp&gt;"><g id="_Grupp_2" data-name="&lt;Grupp&gt;"><path id="_Bana_" data-name="&lt;Bana&gt;" class="cls-1" d="M405.53,451.68c151.5,0,234.34-125.51,234.34-234.34,0-3.57-.07-7.12-.24-10.65A167.64,167.64,0,0,0,680.73,164a164.45,164.45,0,0,1-47.3,13,82.65,82.65,0,0,0,36.21-45.56,165.06,165.06,0,0,1-52.3,20A82.43,82.43,0,0,0,477,226.55,233.83,233.83,0,0,1,307.22,140.5a82.43,82.43,0,0,0,25.5,110,81.74,81.74,0,0,1-37.3-10.3c0,.34,0,.69,0,1.05a82.4,82.4,0,0,0,66.08,80.75,82.22,82.22,0,0,1-37.2,1.41,82.46,82.46,0,0,0,76.95,57.21,165.29,165.29,0,0,1-102.3,35.26,168.11,168.11,0,0,1-19.65-1.14,233.17,233.17,0,0,0,126.25,37" transform="translate(-279.27 -125.41)"/></g></g></svg>