<svg id="Layer_1" data-name="Layer 1" xmlns="http://www.w3.org/2000/svg" viewBox="0 0 205.89 210.92"><defs><style>.cls-1{fill:#007949;}</style></defs><title>wheel-icon-2</title><path class="cls-1" d="M255.82,141.47c-56.75,0-102.94,47.2-102.94,105.46s46.2,105.46,102.94,105.46,102.94-47.2,102.94-105.46S312.57,141.47,255.82,141.47Zm24.86,186.32a3.19,3.19,0,0,1-1.44.24,5.35,5.35,0,0,1-5-4l-2.51-12.8a5.14,5.14,0,0,0-2.74-3.49L273,275a33.73,33.73,0,0,0,14.37-20.33l28.58-11.58a4.91,4.91,0,0,0,3.81,1.78H320l13.31-.75h.24a5.09,5.09,0,0,1,5,5.15s0,.08,0,.12c-2.36,37.91-26,68.08-57.85,78.36Zm3.26-77.08a2.66,2.66,0,0,0-1.44,1.75,28.24,28.24,0,0,1-13,18.82,1.88,1.88,0,0,0-1.25,1.75l-4.31,34.14H247.76L243.45,273a2.87,2.87,0,0,0-1.25-1.75A27.7,27.7,0,0,1,228.9,252.2a2.66,2.66,0,0,0-1.44-1.75l-29.39-12,4.31-15.81,32.83,4.48a2.87,2.87,0,0,0,2-.75,26.68,26.68,0,0,1,37.36.24,2.28,2.28,0,0,0,1.75.75.24.24,0,0,0,.24-.24h0l33.11-4.48L314,238.57ZM192.55,245a4.91,4.91,0,0,0,3.84-1.81L224.2,254.5a33.73,33.73,0,0,0,14.37,20.33l4.2,32.83a5.14,5.14,0,0,0-2.87,3.58l-2.51,12.8a4.89,4.89,0,0,1-5,4,3.19,3.19,0,0,1-1.44-.24c-31.89-10.29-55.5-40.24-57.48-78.59A4.94,4.94,0,0,1,178,244h.66l13.81,1Zm119-30.64a4.6,4.6,0,0,0-2.67,3.35l-31.73,4.44a32.52,32.52,0,0,0-21.34-8.29,32,32,0,0,0-21.34,8.29l-31.41-4.45a4.9,4.9,0,0,0-2.49-3.33l-12.31-6a5.12,5.12,0,0,1-2.24-6.88q.11-.21.23-.41c14.82-23.35,40.42-38.91,69.55-38.91A82.17,82.17,0,0,1,325.37,201a5.37,5.37,0,0,1-2,7.29Zm-55.74-57.25c-1.68,0-3.36,0-5,.16V146.67q2.5-.13,5-.13t5,.13v10.56c-1.67-.14-3.33-.19-5-.19Zm0,190.33c-54,0-97.93-44.95-97.93-100.44,0-52.88,39.92-96.19,90.4-100.14v10.59A87.21,87.21,0,0,0,182,198.24a9.86,9.86,0,0,0,4,14.37l12.3,6-5.62,20.52a2.07,2.07,0,0,0-.19.57l-13.78-1H178a9.93,9.93,0,0,0-6.87,2.87c.13-2.2.32-4.4.59-6.6a1.28,1.28,0,1,0-2.51-.5,100.7,100.7,0,0,0-.73,11.05,9.33,9.33,0,0,0-.52,4c2.51,39.17,26.61,71.85,61.52,83.11a12.6,12.6,0,0,0,3,.5,10.06,10.06,0,0,0,9.79-8l2.49-12.7a2.29,2.29,0,0,0,.78.14.24.24,0,0,0,.24-.24h20.81l2.51,12.8a10.06,10.06,0,0,0,4.77,6.7q-4,.86-8,1.34a1.7,1.7,0,0,0-1,1.44c0,.5.75,1,1.25,1a79.9,79.9,0,0,0,12.67-2.51h.13a12.6,12.6,0,0,0,3-.5c35.15-11.29,59.26-43.68,61.52-82.86a9.46,9.46,0,0,0-2.76-7.53,10.32,10.32,0,0,0-7.29-3.26h-.69l-13.31.75-5.27-19.27a2.11,2.11,0,0,0,0-.82,2.16,2.16,0,0,0-.3-1.11l11.6-5.75a10.06,10.06,0,0,0,5.27-6.28v-.23a84.2,84.2,0,0,1,5.46,13,1.44,1.44,0,0,0,1.25.75h.5a1.22,1.22,0,0,0,.75-1.44,102.33,102.33,0,0,0-8.28-18,9.36,9.36,0,0,0-1-2,86,86,0,0,0-66.1-41.1V146.82c50.48,4,90.4,47.26,90.4,100.14.11,55.47-43.83,100.42-97.81,100.42Z" transform="translate(-152.88 -141.47)"/></svg>